<mxfile host="app.diagrams.net" modified="2021-11-01T10:33:56.515Z" agent="5.0 (Windows NT 10.0; Win64; x64) AppleWebKit/537.36 (KHTML, like Gecko) Chrome/90.0.4430.72 Safari/537.36" etag="3eNR9KFepjNyX2sRLCKR" version="15.6.3" type="github">
  <diagram id="Qmdvzzo64UmUA-DOpO9y" name="Page-1">
    <mxGraphModel dx="1662" dy="794" grid="1" gridSize="10" guides="1" tooltips="1" connect="1" arrows="1" fold="1" page="1" pageScale="1" pageWidth="827" pageHeight="1169" math="0" shadow="0">
      <root>
        <mxCell id="0" />
        <mxCell id="1" parent="0" />
        <mxCell id="v8N_-eXZJlG59UUfPWSV-44" value="" style="rounded=1;whiteSpace=wrap;html=1;fontSize=12;" vertex="1" parent="1">
          <mxGeometry x="230" y="70" width="440" height="470" as="geometry" />
        </mxCell>
        <mxCell id="v8N_-eXZJlG59UUfPWSV-38" value="" style="rounded=0;whiteSpace=wrap;html=1;" vertex="1" parent="1">
          <mxGeometry x="470" y="210" width="120" height="320" as="geometry" />
        </mxCell>
        <mxCell id="v8N_-eXZJlG59UUfPWSV-46" style="edgeStyle=orthogonalEdgeStyle;rounded=0;orthogonalLoop=1;jettySize=auto;html=1;fontSize=18;entryX=1.143;entryY=0.794;entryDx=0;entryDy=0;entryPerimeter=0;" edge="1" parent="1" source="v8N_-eXZJlG59UUfPWSV-27" target="v8N_-eXZJlG59UUfPWSV-8">
          <mxGeometry relative="1" as="geometry">
            <mxPoint x="200" y="460" as="targetPoint" />
          </mxGeometry>
        </mxCell>
        <mxCell id="v8N_-eXZJlG59UUfPWSV-49" value="Display Data" style="edgeLabel;html=1;align=center;verticalAlign=middle;resizable=0;points=[];fontSize=12;" vertex="1" connectable="0" parent="v8N_-eXZJlG59UUfPWSV-46">
          <mxGeometry x="-0.1023" relative="1" as="geometry">
            <mxPoint as="offset" />
          </mxGeometry>
        </mxCell>
        <mxCell id="v8N_-eXZJlG59UUfPWSV-27" value="" style="rounded=0;whiteSpace=wrap;html=1;" vertex="1" parent="1">
          <mxGeometry x="300" y="200" width="110" height="520" as="geometry" />
        </mxCell>
        <mxCell id="v8N_-eXZJlG59UUfPWSV-3" value="&lt;b&gt;MongoDB&lt;/b&gt;&lt;br&gt;Data source" style="aspect=fixed;perimeter=ellipsePerimeter;html=1;align=center;shadow=0;dashed=0;spacingTop=3;image;image=img/lib/active_directory/database_server.svg;" vertex="1" parent="1">
          <mxGeometry x="731" y="230" width="41" height="50" as="geometry" />
        </mxCell>
        <mxCell id="v8N_-eXZJlG59UUfPWSV-4" value="&lt;b&gt;Redis&lt;/b&gt;&lt;br&gt;In-Memory Cache" style="sketch=0;aspect=fixed;html=1;points=[];align=center;image;fontSize=12;image=img/lib/mscae/Cache_Redis_Product.svg;" vertex="1" parent="1">
          <mxGeometry x="509" y="410" width="50" height="42" as="geometry" />
        </mxCell>
        <mxCell id="v8N_-eXZJlG59UUfPWSV-25" style="edgeStyle=orthogonalEdgeStyle;rounded=0;orthogonalLoop=1;jettySize=auto;html=1;exitX=0.75;exitY=0;exitDx=0;exitDy=0;entryX=0.417;entryY=0.011;entryDx=0;entryDy=0;entryPerimeter=0;" edge="1" parent="1" source="v8N_-eXZJlG59UUfPWSV-6" target="v8N_-eXZJlG59UUfPWSV-8">
          <mxGeometry relative="1" as="geometry">
            <Array as="points">
              <mxPoint x="540" y="130" />
              <mxPoint x="164" y="130" />
            </Array>
          </mxGeometry>
        </mxCell>
        <mxCell id="v8N_-eXZJlG59UUfPWSV-6" value="&lt;b&gt;Express Backend&lt;br&gt;&lt;/b&gt;ExpressJs, NodeJs" style="aspect=fixed;perimeter=ellipsePerimeter;html=1;align=center;shadow=0;dashed=0;spacingTop=3;image;image=img/lib/active_directory/generic_server.svg;" vertex="1" parent="1">
          <mxGeometry x="520" y="230" width="28.000000000000004" height="50" as="geometry" />
        </mxCell>
        <mxCell id="v8N_-eXZJlG59UUfPWSV-7" value="&lt;b&gt;React Frontend&lt;/b&gt;&lt;br&gt;HTML, CSS,&lt;br&gt;Javascsript,&lt;br&gt;NodeJs" style="aspect=fixed;perimeter=ellipsePerimeter;html=1;align=center;shadow=0;dashed=0;spacingTop=3;image;image=img/lib/active_directory/laptop_client.svg;" vertex="1" parent="1">
          <mxGeometry x="330" y="230" width="45" height="50" as="geometry" />
        </mxCell>
        <mxCell id="v8N_-eXZJlG59UUfPWSV-24" value="Request" style="edgeStyle=orthogonalEdgeStyle;rounded=0;orthogonalLoop=1;jettySize=auto;html=1;exitX=0.889;exitY=0.02;exitDx=0;exitDy=0;entryX=0.393;entryY=0.007;entryDx=0;entryDy=0;entryPerimeter=0;exitPerimeter=0;" edge="1" parent="1" source="v8N_-eXZJlG59UUfPWSV-8" target="v8N_-eXZJlG59UUfPWSV-6">
          <mxGeometry x="0.2662" relative="1" as="geometry">
            <Array as="points">
              <mxPoint x="179" y="233" />
              <mxPoint x="180" y="233" />
              <mxPoint x="180" y="140" />
              <mxPoint x="531" y="140" />
            </Array>
            <mxPoint as="offset" />
          </mxGeometry>
        </mxCell>
        <mxCell id="v8N_-eXZJlG59UUfPWSV-47" style="edgeStyle=orthogonalEdgeStyle;rounded=0;orthogonalLoop=1;jettySize=auto;html=1;exitX=1;exitY=0.25;exitDx=0;exitDy=0;entryX=-0.013;entryY=0.451;entryDx=0;entryDy=0;entryPerimeter=0;fontSize=18;" edge="1" parent="1" source="v8N_-eXZJlG59UUfPWSV-8" target="v8N_-eXZJlG59UUfPWSV-27">
          <mxGeometry relative="1" as="geometry" />
        </mxCell>
        <mxCell id="v8N_-eXZJlG59UUfPWSV-48" value="&lt;font style=&quot;font-size: 12px&quot;&gt;Specify Data&lt;/font&gt;" style="edgeLabel;html=1;align=center;verticalAlign=middle;resizable=0;points=[];fontSize=18;" vertex="1" connectable="0" parent="v8N_-eXZJlG59UUfPWSV-47">
          <mxGeometry x="0.169" y="1" relative="1" as="geometry">
            <mxPoint x="-9" y="-3" as="offset" />
          </mxGeometry>
        </mxCell>
        <mxCell id="v8N_-eXZJlG59UUfPWSV-8" value="&lt;b&gt;Users&lt;/b&gt;" style="aspect=fixed;perimeter=ellipsePerimeter;html=1;align=center;shadow=0;dashed=0;spacingTop=3;image;image=img/lib/active_directory/users.svg;" vertex="1" parent="1">
          <mxGeometry x="150" y="420" width="33" height="50" as="geometry" />
        </mxCell>
        <mxCell id="v8N_-eXZJlG59UUfPWSV-10" value="" style="endArrow=classic;html=1;rounded=0;entryX=0;entryY=0.389;entryDx=0;entryDy=0;entryPerimeter=0;exitX=0.939;exitY=0.389;exitDx=0;exitDy=0;exitPerimeter=0;" edge="1" parent="1" source="v8N_-eXZJlG59UUfPWSV-6" target="v8N_-eXZJlG59UUfPWSV-3">
          <mxGeometry width="50" height="50" relative="1" as="geometry">
            <mxPoint x="560" y="250" as="sourcePoint" />
            <mxPoint x="600" y="320" as="targetPoint" />
          </mxGeometry>
        </mxCell>
        <mxCell id="v8N_-eXZJlG59UUfPWSV-11" value="Request" style="edgeLabel;html=1;align=center;verticalAlign=middle;resizable=0;points=[];" vertex="1" connectable="0" parent="v8N_-eXZJlG59UUfPWSV-10">
          <mxGeometry x="-0.2145" relative="1" as="geometry">
            <mxPoint x="8" y="-9" as="offset" />
          </mxGeometry>
        </mxCell>
        <mxCell id="v8N_-eXZJlG59UUfPWSV-12" value="" style="endArrow=classic;html=1;rounded=0;exitX=-0.057;exitY=0.547;exitDx=0;exitDy=0;exitPerimeter=0;entryX=0.905;entryY=0.547;entryDx=0;entryDy=0;entryPerimeter=0;" edge="1" parent="1" source="v8N_-eXZJlG59UUfPWSV-3" target="v8N_-eXZJlG59UUfPWSV-6">
          <mxGeometry width="50" height="50" relative="1" as="geometry">
            <mxPoint x="610" y="350" as="sourcePoint" />
            <mxPoint x="660" y="300" as="targetPoint" />
          </mxGeometry>
        </mxCell>
        <mxCell id="v8N_-eXZJlG59UUfPWSV-13" value="" style="endArrow=classic;html=1;rounded=0;entryX=0;entryY=0.389;entryDx=0;entryDy=0;entryPerimeter=0;exitX=0.939;exitY=0.389;exitDx=0;exitDy=0;exitPerimeter=0;" edge="1" parent="1">
          <mxGeometry width="50" height="50" relative="1" as="geometry">
            <mxPoint x="376.2919999999999" y="250.80999999999995" as="sourcePoint" />
            <mxPoint x="520" y="250.80999999999995" as="targetPoint" />
          </mxGeometry>
        </mxCell>
        <mxCell id="v8N_-eXZJlG59UUfPWSV-14" value="Request" style="edgeLabel;html=1;align=center;verticalAlign=middle;resizable=0;points=[];" vertex="1" connectable="0" parent="v8N_-eXZJlG59UUfPWSV-13">
          <mxGeometry x="-0.2145" relative="1" as="geometry">
            <mxPoint x="8" y="-9" as="offset" />
          </mxGeometry>
        </mxCell>
        <mxCell id="v8N_-eXZJlG59UUfPWSV-15" value="" style="endArrow=classic;html=1;rounded=0;exitX=-0.057;exitY=0.547;exitDx=0;exitDy=0;exitPerimeter=0;entryX=0.905;entryY=0.547;entryDx=0;entryDy=0;entryPerimeter=0;" edge="1" parent="1">
          <mxGeometry width="50" height="50" relative="1" as="geometry">
            <mxPoint x="517.663" y="258.7099999999999" as="sourcePoint" />
            <mxPoint x="375.3399999999999" y="258.7099999999999" as="targetPoint" />
          </mxGeometry>
        </mxCell>
        <mxCell id="v8N_-eXZJlG59UUfPWSV-19" value="" style="endArrow=classic;html=1;rounded=0;entryX=0.619;entryY=-0.088;entryDx=0;entryDy=0;entryPerimeter=0;" edge="1" parent="1" target="v8N_-eXZJlG59UUfPWSV-4">
          <mxGeometry width="50" height="50" relative="1" as="geometry">
            <mxPoint x="540" y="320" as="sourcePoint" />
            <mxPoint x="539" y="380" as="targetPoint" />
          </mxGeometry>
        </mxCell>
        <mxCell id="v8N_-eXZJlG59UUfPWSV-42" value="&lt;font style=&quot;font-size: 12px&quot;&gt;Write&lt;/font&gt;" style="edgeLabel;html=1;align=center;verticalAlign=middle;resizable=0;points=[];fontSize=18;" vertex="1" connectable="0" parent="v8N_-eXZJlG59UUfPWSV-19">
          <mxGeometry x="0.205" y="2" relative="1" as="geometry">
            <mxPoint x="17" y="-2" as="offset" />
          </mxGeometry>
        </mxCell>
        <mxCell id="v8N_-eXZJlG59UUfPWSV-20" value="" style="endArrow=classic;html=1;rounded=0;exitX=0.371;exitY=-0.066;exitDx=0;exitDy=0;exitPerimeter=0;" edge="1" parent="1" source="v8N_-eXZJlG59UUfPWSV-4">
          <mxGeometry width="50" height="50" relative="1" as="geometry">
            <mxPoint x="520" y="370" as="sourcePoint" />
            <mxPoint x="528" y="320" as="targetPoint" />
          </mxGeometry>
        </mxCell>
        <mxCell id="v8N_-eXZJlG59UUfPWSV-43" value="Read" style="edgeLabel;html=1;align=center;verticalAlign=middle;resizable=0;points=[];fontSize=12;" vertex="1" connectable="0" parent="v8N_-eXZJlG59UUfPWSV-20">
          <mxGeometry x="-0.1083" y="1" relative="1" as="geometry">
            <mxPoint x="-18" y="2" as="offset" />
          </mxGeometry>
        </mxCell>
        <mxCell id="v8N_-eXZJlG59UUfPWSV-28" value="&lt;b&gt;Previous project&lt;br&gt;&lt;/b&gt;HTML, CSS,&lt;br&gt;Javascsript,&lt;br&gt;EJS" style="aspect=fixed;perimeter=ellipsePerimeter;html=1;align=center;shadow=0;dashed=0;spacingTop=3;image;image=img/lib/active_directory/laptop_client.svg;" vertex="1" parent="1">
          <mxGeometry x="330" y="560" width="45" height="50" as="geometry" />
        </mxCell>
        <mxCell id="v8N_-eXZJlG59UUfPWSV-32" value="Integration" style="endArrow=none;html=1;rounded=0;exitX=0.549;exitY=-0.065;exitDx=0;exitDy=0;exitPerimeter=0;" edge="1" parent="1" source="v8N_-eXZJlG59UUfPWSV-28">
          <mxGeometry width="50" height="50" relative="1" as="geometry">
            <mxPoint x="640" y="420" as="sourcePoint" />
            <mxPoint x="355" y="350" as="targetPoint" />
          </mxGeometry>
        </mxCell>
        <mxCell id="v8N_-eXZJlG59UUfPWSV-34" value="&lt;b&gt;MongoDB&lt;/b&gt;&lt;br&gt;Data source" style="aspect=fixed;perimeter=ellipsePerimeter;html=1;align=center;shadow=0;dashed=0;spacingTop=3;image;image=img/lib/active_directory/database_server.svg;" vertex="1" parent="1">
          <mxGeometry x="731" y="560" width="41" height="50" as="geometry" />
        </mxCell>
        <mxCell id="v8N_-eXZJlG59UUfPWSV-35" value="" style="endArrow=classic;html=1;rounded=0;entryX=0;entryY=0.389;entryDx=0;entryDy=0;entryPerimeter=0;exitX=1.148;exitY=0.393;exitDx=0;exitDy=0;exitPerimeter=0;" edge="1" parent="1" target="v8N_-eXZJlG59UUfPWSV-34" source="v8N_-eXZJlG59UUfPWSV-28">
          <mxGeometry width="50" height="50" relative="1" as="geometry">
            <mxPoint x="546.2920000000001" y="529.4499999999998" as="sourcePoint" />
            <mxPoint x="600" y="600" as="targetPoint" />
          </mxGeometry>
        </mxCell>
        <mxCell id="v8N_-eXZJlG59UUfPWSV-36" value="Request" style="edgeLabel;html=1;align=center;verticalAlign=middle;resizable=0;points=[];" vertex="1" connectable="0" parent="v8N_-eXZJlG59UUfPWSV-35">
          <mxGeometry x="-0.2145" relative="1" as="geometry">
            <mxPoint x="46" y="-9" as="offset" />
          </mxGeometry>
        </mxCell>
        <mxCell id="v8N_-eXZJlG59UUfPWSV-37" value="" style="endArrow=classic;html=1;rounded=0;exitX=-0.057;exitY=0.547;exitDx=0;exitDy=0;exitPerimeter=0;entryX=1.023;entryY=0.608;entryDx=0;entryDy=0;entryPerimeter=0;" edge="1" parent="1" source="v8N_-eXZJlG59UUfPWSV-34" target="v8N_-eXZJlG59UUfPWSV-28">
          <mxGeometry width="50" height="50" relative="1" as="geometry">
            <mxPoint x="610" y="630" as="sourcePoint" />
            <mxPoint x="380" y="537" as="targetPoint" />
          </mxGeometry>
        </mxCell>
        <mxCell id="v8N_-eXZJlG59UUfPWSV-40" value="&lt;font style=&quot;font-size: 18px&quot;&gt;Frontend&lt;/font&gt;" style="text;html=1;align=center;verticalAlign=middle;resizable=0;points=[];autosize=1;strokeColor=none;fillColor=none;" vertex="1" parent="1">
          <mxGeometry x="310" y="700" width="90" height="20" as="geometry" />
        </mxCell>
        <mxCell id="v8N_-eXZJlG59UUfPWSV-41" value="&lt;font style=&quot;font-size: 18px&quot;&gt;Backend&lt;/font&gt;" style="text;html=1;align=center;verticalAlign=middle;resizable=0;points=[];autosize=1;strokeColor=none;fillColor=none;" vertex="1" parent="1">
          <mxGeometry x="489" y="510" width="90" height="20" as="geometry" />
        </mxCell>
        <mxCell id="v8N_-eXZJlG59UUfPWSV-45" value="&lt;font style=&quot;font-size: 18px&quot;&gt;Heroku Cloud&lt;/font&gt;" style="text;html=1;align=center;verticalAlign=middle;resizable=0;points=[];autosize=1;strokeColor=none;fillColor=none;fontSize=12;" vertex="1" parent="1">
          <mxGeometry x="385" y="80" width="130" height="20" as="geometry" />
        </mxCell>
      </root>
    </mxGraphModel>
  </diagram>
</mxfile>
